=======================================================
        Come joing us at www.moviestorrent.net
=======================================================

General
Complete name                  : The Founding of a Republic (2009).mkv
Format                         : Matroska
Format version                 : Version 2
File size                      : 4.36 GiB
Duration                       : 2h 20mn
Overall bit rate               : 4 435 Kbps

Video
Format                         : AVC
Format/Info                    : Advanced Video Codec
Format profile                 : High@L4.0
Format settings, CABAC         : Yes
Format settings, ReFrames      : 3 frames
Muxing mode                    : Header stripping
Codec ID                       : V_MPEG4/ISO/AVC
Duration                       : 2h 20mn
Bit rate mode                  : Variable
Bit rate                       : 3 684 Kbps
Maximum bit rate               : 25.0 Mbps
Width                          : 1 280 pixels
Height                         : 556 pixels
Display aspect ratio           : 2.35:1
Frame rate                     : 23.976 fps
Color space                    : YUV
Chroma subsampling             : 4:2:0
Bit depth                      : 8 bits
Scan type                      : Progressive
Bits/(Pixel*Frame)             : 0.216
Stream size                    : 3.53 GiB (81%)
Writing library                : x264 core 114 r1924 08d04a4

Audio
Format                         : DTS
Format/Info                    : Digital Theater Systems
Muxing mode                    : Header stripping
Codec ID                       : A_DTS
Duration                       : 2h 20mn
Bit rate mode                  : Constant
Bit rate                       : 755 Kbps
Channel(s)                     : 6 channels
Channel positions              : Front: L C R, Side: L R, LFE
Sampling rate                  : 48.0 KHz
Bit depth                      : 24 bits
Compression mode               : Lossy
Stream size                    : 759 MiB (17%)
Language                       : Chinese

Subtitles                      : English (default), Bulgarian, iranian, Spanish, Vietnamese
                     
Screenshots                    : www.moviestorrent.net





